<?xml version="1.0" standalone="no"?>
<!DOCTYPE svg PUBLIC "-//W3C//DTD SVG 20010904//EN"
 "http://www.w3.org/TR/2001/REC-SVG-20010904/DTD/svg10.dtd">
<svg version="1.0" xmlns="http://www.w3.org/2000/svg"
 width="700.000000pt" height="700.000000pt" viewBox="0 0 700.000000 700.000000"
 preserveAspectRatio="xMidYMid meet">
<metadata>
Created by potrace 1.14, written by Peter Selinger 2001-2017
</metadata>
<g transform="translate(0.000000,700.000000) scale(0.100000,-0.100000)"
fill="#000000" stroke="none">
<path d="M1758 6614 c-2 -1 -55 -5 -118 -9 -62 -3 -116 -8 -120 -10 -3 -1 -32
-6 -65 -9 -124 -14 -284 -45 -439 -87 -285 -77 -566 -190 -798 -321 -104 -58
-153 -105 -187 -178 l-26 -55 0 -2660 0 -2660 23 -47 c64 -133 196 -208 337
-192 54 6 119 34 285 125 27 15 148 68 197 87 26 10 57 23 68 27 11 5 22 9 25
10 3 0 55 17 115 37 104 34 292 80 380 93 22 4 69 11 104 16 152 23 457 31
611 15 110 -11 162 -17 185 -20 342 -58 571 -133 884 -289 l205 -102 79 1 c80
1 82 2 226 76 312 161 627 268 906 308 44 6 91 13 103 15 112 19 454 25 592
11 228 -22 372 -50 575 -112 202 -61 310 -105 527 -217 156 -80 158 -81 235
-81 69 -1 86 3 145 32 73 36 123 86 160 161 l23 46 0 2660 0 2660 -27 55 c-37
77 -81 119 -184 177 -241 136 -515 246 -799 322 -97 25 -142 36 -245 56 -41 8
-152 26 -195 31 -22 3 -53 7 -70 9 -214 32 -657 24 -895 -15 -30 -5 -71 -12
-90 -15 -19 -3 -48 -8 -65 -11 -245 -41 -606 -161 -871 -291 l-52 -25 -78 37
c-214 101 -542 216 -714 250 -8 2 -33 8 -55 13 -53 14 -282 51 -348 57 -28 2
-79 7 -112 11 -57 6 -432 13 -437 8z m3788 -1092 c55 -28 110 -87 142 -151
l27 -56 1 -1090 c2 -1174 2 -1177 -51 -1370 -128 -468 -467 -837 -922 -1004
-86 -31 -225 -66 -318 -78 -78 -10 -985 -10 -1048 0 -178 29 -351 134 -464
282 -114 149 -181 391 -147 532 35 146 177 252 329 248 164 -4 292 -126 316
-301 7 -54 15 -74 35 -91 29 -26 -10 -24 496 -24 373 0 435 3 527 31 130 40
267 124 363 223 120 124 201 293 223 469 4 29 7 523 7 1098 1 638 5 1057 10
1075 45 139 146 225 286 243 63 8 125 -4 188 -36z m-1113 -941 c47 -23 88 -68
108 -118 8 -19 11 -189 11 -548 1 -587 -1 -607 -72 -725 -65 -109 -149 -181
-259 -225 -79 -31 -112 -36 -243 -36 -171 0 -264 34 -356 130 -73 76 -110 165
-117 279 -5 90 -19 144 -56 210 -39 69 -72 105 -133 146 -211 138 -492 63
-604 -160 -32 -65 -41 -102 -47 -202 -13 -186 -122 -328 -299 -387 -59 -19
-269 -22 -343 -4 -193 46 -359 217 -394 404 -8 40 -12 235 -12 576 l-1 515 23
47 c26 54 73 94 129 110 29 9 383 12 1329 11 l1290 -1 46 -22z"/>
</g>
</svg>
