<svg width="1024" height="1024" viewBox="0 0 1024 1024" fill="none" xmlns="http://www.w3.org/2000/svg">
<path fill-rule="evenodd" clip-rule="evenodd" d="M267.197 318.719H635.388C651.996 318.719 667.934 325.305 679.693 337.046C691.454 348.788 698.071 364.724 698.071 381.352V519.202C698.071 548.016 686.605 575.64 666.213 596C645.823 616.357 618.179 627.785 589.365 627.785H574.023C549.278 627.785 525.536 617.971 508.022 600.486C490.507 582.999 480.658 559.271 480.658 534.518C480.658 526.773 477.577 519.335 472.075 513.842C466.572 508.348 459.098 505.252 451.293 505.252C443.488 505.252 436.013 508.348 430.51 513.842C425.009 519.335 421.928 526.773 421.928 534.518C421.928 559.271 412.078 582.999 394.563 600.486C377.05 617.971 353.308 627.785 328.562 627.785H313.221C284.407 627.785 256.763 616.357 236.372 596C215.98 575.64 204.515 548.016 204.515 519.202V381.352C204.515 364.724 211.131 348.788 222.892 337.046C234.651 325.305 250.589 318.719 267.197 318.719ZM268.515 382.719H634.071V519.202C634.071 531.009 629.373 542.343 620.995 550.708C612.615 559.075 601.238 563.785 589.365 563.785H574.023C566.218 563.785 558.744 560.689 553.241 555.195C547.739 549.702 544.658 542.264 544.658 534.518C544.658 509.766 534.809 486.038 517.294 468.551C499.78 451.066 476.038 441.252 451.293 441.252C426.547 441.252 402.805 451.066 385.292 468.551C367.777 486.038 357.928 509.766 357.928 534.518C357.928 542.264 354.846 549.702 349.345 555.195C343.842 560.689 336.367 563.785 328.562 563.785H313.221C301.348 563.785 289.971 559.075 281.591 550.708C273.212 542.343 268.515 531.009 268.515 519.202V382.719Z" fill="white"/>
<path d="M820.515 258.317C820.515 240.644 806.188 226.317 788.515 226.317C770.842 226.317 756.515 240.644 756.515 258.317V549.651C756.515 585.9 742.119 620.663 716.499 646.292C690.878 671.921 656.132 686.317 619.904 686.317H512.606C504.835 686.317 497.38 683.229 491.882 677.73C486.384 672.229 483.293 664.767 483.293 656.984C483.293 639.311 468.966 624.984 451.293 624.984C433.62 624.984 419.293 639.311 419.293 656.984C419.293 681.734 429.121 705.473 446.62 722.977C464.119 740.481 487.854 750.317 512.606 750.317H619.904C673.112 750.317 724.14 729.173 761.761 691.54C799.382 653.907 820.515 602.867 820.515 549.651V258.317Z" fill="white"/>
<path fill-rule="evenodd" clip-rule="evenodd" d="M16 166.7C15.9878 166.033 15.9965 165.367 16.0258 164.703C16.5094 152.567 23.7523 142.169 34.0932 137.172C108.984 94.4688 193.74 72 280 72C360.962 72 440.6 91.7939 512 129.534C583.4 91.7939 663.038 72 744 72C830.26 72 915.016 94.4688 989.907 137.172C1000.25 142.168 1007.49 152.563 1007.97 164.696C1008 165.363 1008.01 166.032 1008 166.702V919.527C1008.1 925.14 1006.73 930.852 1003.72 936.069C994.894 951.38 975.326 956.635 960.015 947.806C894.341 909.938 819.84 890 744 890C668.16 890 593.659 909.938 527.985 947.806C518.092 953.511 505.908 953.511 496.015 947.806C430.341 909.938 355.84 890 280 890C204.16 890 129.659 909.938 63.9847 947.806C48.6744 956.635 29.1064 951.38 20.2783 936.069C17.2702 930.853 15.8972 925.141 16 919.529V166.7ZM944 868.06V185.017C882.347 152.859 813.739 136 744 136C668.16 136 593.659 155.938 527.985 193.806C518.092 199.511 505.908 199.511 496.015 193.806C430.341 155.938 355.84 136 280 136C210.261 136 141.653 152.859 80 185.017V868.06C142.842 840.402 210.939 826 280 826C360.962 826 440.6 845.794 512 883.534C583.4 845.794 663.038 826 744 826C813.061 826 881.158 840.402 944 868.06Z" fill="white"/>
</svg>
