<svg width="1026" height="1024" viewBox="0 0 1026 1024" fill="none" xmlns="http://www.w3.org/2000/svg">
<path fill-rule="evenodd" clip-rule="evenodd" d="M1.06281 163.523C0.999808 164.681 0.978658 165.843 0.999984 167.008V919.251C0.845848 927.67 2.90535 936.237 7.4175 944.062C20.6596 967.027 50.0116 974.909 72.977 961.667C136.22 925.201 207.965 906 281 906C354.035 906 425.78 925.201 489.023 961.667C503.863 970.224 522.137 970.224 536.977 961.667C600.22 925.201 671.965 906 745 906C818.035 906 889.78 925.201 953.023 961.667C975.988 974.909 1005.34 967.027 1018.58 944.062C1023.09 936.236 1025.15 927.669 1025 919.251V167.007C1025.02 165.844 1025 164.682 1024.94 163.524C1024.03 145.738 1013.45 130.508 998.348 122.997C921.161 79.0959 833.853 56 745 56C664.245 56 584.765 75.0782 513 111.515C441.235 75.0782 361.755 56 281 56C192.147 56 104.839 79.0958 27.6522 122.997C12.5517 130.507 1.96699 145.738 1.06281 163.523ZM789.514 210.317C816.024 210.317 837.514 231.808 837.514 258.317V549.651C837.514 607.109 814.697 662.217 774.076 702.852C733.455 743.486 678.357 766.317 620.903 766.317H513.606C484.609 766.317 456.803 754.794 436.304 734.289C415.806 713.784 404.293 685.976 404.293 656.984C404.293 630.474 425.783 608.984 452.293 608.984C478.802 608.984 500.293 630.474 500.293 656.984C500.293 660.525 501.699 663.918 504.197 666.418C506.695 668.917 510.08 670.317 513.606 670.317H620.903C652.886 670.317 683.562 657.608 706.183 634.981C728.803 612.352 741.514 581.659 741.514 549.651V258.317C741.514 231.808 763.005 210.317 789.514 210.317ZM268.197 350.719H636.388C644.526 350.719 652.33 353.947 658.084 359.691C663.838 365.436 667.071 373.228 667.071 381.352V519.202C667.071 539.513 658.989 558.992 644.604 573.354C630.219 587.716 610.708 595.785 590.364 595.785H575.023C558.748 595.785 543.139 589.33 531.631 577.84C520.123 566.35 513.658 550.767 513.658 534.518C513.658 518.269 507.192 502.686 495.684 491.196C484.176 479.707 468.568 473.252 452.293 473.252C436.017 473.252 420.409 479.707 408.901 491.196C397.393 502.686 390.927 518.269 390.927 534.518C390.927 550.767 384.462 566.35 372.954 577.84C361.446 589.33 345.837 595.785 329.562 595.785H314.221C293.877 595.785 274.366 587.716 259.981 573.354C245.596 558.992 237.514 539.513 237.514 519.202V381.352C237.514 373.228 240.747 365.436 246.501 359.691C252.255 353.947 260.059 350.719 268.197 350.719Z" fill="white"/>
</svg>
