<svg xmlns="http://www.w3.org/2000/svg" width="1024" height="1024" fill="none">
  <path fill="#000" fill-rule="evenodd"
    d="M.063 163.523A47.977 47.977 0 0 0 0 167.008v752.243a47.777 47.777 0 0 0 6.418 24.811c13.242 22.965 42.594 30.847 65.559 17.605A416.464 416.464 0 0 1 280 906a416.464 416.464 0 0 1 208.023 55.667 47.998 47.998 0 0 0 47.954 0A416.464 416.464 0 0 1 744 906a416.464 416.464 0 0 1 208.023 55.667c22.965 13.242 52.317 5.36 65.557-17.605a47.844 47.844 0 0 0 6.42-24.811V167.007c.02-1.163 0-2.325-.06-3.483-.91-17.786-11.49-33.016-26.592-40.527A512.456 512.456 0 0 0 744 56a512.482 512.482 0 0 0-232 55.515A512.482 512.482 0 0 0 280 56a512.454 512.454 0 0 0-253.348 66.997c-15.1 7.51-25.685 22.741-26.59 40.526Zm788.451 46.794c26.51 0 48 21.491 48 48v291.334a216.696 216.696 0 0 1-63.438 153.201 216.585 216.585 0 0 1-153.173 63.465H512.606a109.306 109.306 0 0 1-77.302-32.028 109.345 109.345 0 0 1-32.011-77.305c0-26.51 21.49-48 48-48 26.509 0 48 21.49 48 48 0 3.541 1.406 6.934 3.904 9.434a13.303 13.303 0 0 0 9.409 3.899h107.297a120.588 120.588 0 0 0 85.28-35.336 120.699 120.699 0 0 0 35.331-85.33V258.317c0-26.509 21.491-48 48-48ZM267.197 350.719h368.191a30.71 30.71 0 0 1 21.696 8.972 30.61 30.61 0 0 1 8.987 21.661v137.85a76.52 76.52 0 0 1-22.467 54.152 76.77 76.77 0 0 1-54.24 22.431h-15.341a61.415 61.415 0 0 1-43.392-17.945 61.217 61.217 0 0 1-17.973-43.322 61.218 61.218 0 0 0-17.974-43.322 61.416 61.416 0 0 0-43.391-17.944 61.416 61.416 0 0 0-43.392 17.944 61.218 61.218 0 0 0-17.974 43.322 61.217 61.217 0 0 1-17.973 43.322 61.415 61.415 0 0 1-43.392 17.945h-15.341a76.77 76.77 0 0 1-54.24-22.431 76.52 76.52 0 0 1-22.467-54.152v-137.85a30.61 30.61 0 0 1 8.987-21.661 30.71 30.71 0 0 1 21.696-8.972Z"
    clip-rule="evenodd" />
</svg>