<svg xmlns="http://www.w3.org/2000/svg" width="1024" height="1024" fill="none">
  <path fill="#000" fill-rule="evenodd"
    d="M267.197 318.719h368.191a62.704 62.704 0 0 1 44.305 18.327 62.607 62.607 0 0 1 18.378 44.306v137.85A108.524 108.524 0 0 1 666.213 596a108.77 108.77 0 0 1-76.848 31.785h-15.342a93.418 93.418 0 0 1-66.001-27.299 93.217 93.217 0 0 1-27.364-65.968 29.215 29.215 0 0 0-8.583-20.676 29.414 29.414 0 0 0-20.782-8.59 29.417 29.417 0 0 0-20.783 8.59 29.218 29.218 0 0 0-8.582 20.676 93.218 93.218 0 0 1-27.365 65.968 93.415 93.415 0 0 1-66.001 27.299h-15.341A108.773 108.773 0 0 1 236.372 596a108.523 108.523 0 0 1-31.857-76.798v-137.85a62.606 62.606 0 0 1 18.377-44.306 62.704 62.704 0 0 1 44.305-18.327Zm1.318 64h365.556v136.483a44.522 44.522 0 0 1-13.076 31.506 44.768 44.768 0 0 1-31.63 13.077h-15.342a29.414 29.414 0 0 1-20.782-8.59 29.215 29.215 0 0 1-8.583-20.677 93.216 93.216 0 0 0-27.364-65.967 93.418 93.418 0 0 0-66.001-27.299 93.415 93.415 0 0 0-66.001 27.299 93.216 93.216 0 0 0-27.364 65.967 29.22 29.22 0 0 1-8.583 20.677 29.417 29.417 0 0 1-20.783 8.59h-15.341a44.768 44.768 0 0 1-31.63-13.077 44.517 44.517 0 0 1-13.076-31.506V382.719Z"
    clip-rule="evenodd" />
  <path fill="#000"
    d="M820.515 258.317c0-17.673-14.327-32-32-32-17.673 0-32 14.327-32 32v291.334a136.697 136.697 0 0 1-40.016 96.641 136.584 136.584 0 0 1-96.595 40.025H512.606a29.306 29.306 0 0 1-20.724-8.587 29.348 29.348 0 0 1-8.589-20.746c0-17.673-14.327-32-32-32-17.673 0-32 14.327-32 32a93.341 93.341 0 0 0 27.327 65.993 93.304 93.304 0 0 0 65.986 27.34h107.298a200.585 200.585 0 0 0 141.857-58.777 200.695 200.695 0 0 0 58.754-141.889V258.317Z" />
  <path fill="#000" fill-rule="evenodd"
    d="M16 166.7a32.018 32.018 0 0 1 .026-1.997c.483-12.136 7.726-22.534 18.067-27.531A496.454 496.454 0 0 1 280 72c80.962 0 160.6 19.794 232 57.534A496.477 496.477 0 0 1 744 72a496.456 496.456 0 0 1 245.907 65.172c10.343 4.996 17.583 15.391 18.063 27.524.03.667.04 1.336.03 2.006v752.825a31.866 31.866 0 0 1-4.28 16.542c-8.826 15.311-28.394 20.566-43.705 11.737A432.46 432.46 0 0 0 744 890a432.46 432.46 0 0 0-216.015 57.806 31.999 31.999 0 0 1-31.97 0A432.46 432.46 0 0 0 280 890a432.462 432.462 0 0 0-216.015 57.806c-15.31 8.829-34.879 3.574-43.707-11.737A31.848 31.848 0 0 1 16 919.529V166.7Zm928 701.36V185.017A432.48 432.48 0 0 0 744 136a432.46 432.46 0 0 0-216.015 57.806 31.999 31.999 0 0 1-31.97 0A432.46 432.46 0 0 0 280 136a432.48 432.48 0 0 0-200 49.017V868.06A496.498 496.498 0 0 1 280 826c80.962 0 160.6 19.794 232 57.534A496.479 496.479 0 0 1 744 826a496.498 496.498 0 0 1 200 42.06Z"
    clip-rule="evenodd" />
</svg>