<svg width="1026" height="1024" viewBox="0 0 1026 1024" fill="none" xmlns="http://www.w3.org/2000/svg">
<path fill-rule="evenodd" clip-rule="evenodd" d="M268.197 302.719H636.388C657.231 302.719 677.236 310.985 691.998 325.723C706.762 340.464 715.071 360.473 715.071 381.352V519.202C715.071 552.268 701.913 583.965 678.518 607.323C655.125 630.678 623.414 643.785 590.364 643.785H575.023C546.042 643.785 518.233 632.291 497.717 611.809C477.199 591.323 465.658 563.523 465.658 534.518C465.658 531.025 464.268 527.659 461.771 525.165C459.27 522.668 455.862 521.252 452.293 521.252C448.723 521.252 445.315 522.668 442.815 525.165C440.317 527.659 438.927 531.025 438.927 534.518C438.927 563.523 427.386 591.323 406.868 611.809C386.352 632.291 358.543 643.785 329.562 643.785H314.221C281.172 643.785 249.46 630.678 226.067 607.323C202.672 583.965 189.514 552.268 189.514 519.202V381.352C189.514 360.473 197.823 340.464 212.587 325.723C227.349 310.985 247.354 302.719 268.197 302.719ZM285.514 398.719H619.071V519.202C619.071 526.757 616.065 534.019 610.69 539.386C605.313 544.755 598.003 547.785 590.364 547.785H575.023C571.453 547.785 568.046 546.368 565.545 543.872C563.047 541.378 561.658 538.012 561.658 534.518C561.658 505.514 550.117 477.713 529.598 457.228C509.082 436.745 481.273 425.252 452.293 425.252C423.312 425.252 395.503 436.745 374.987 457.228C354.469 477.713 342.927 505.514 342.927 534.518C342.927 538.012 341.538 541.378 339.04 543.872C336.54 546.368 333.132 547.785 329.562 547.785H314.221C306.583 547.785 299.273 544.755 293.895 539.386C288.52 534.019 285.514 526.757 285.514 519.202V398.719Z" fill="white"/>
<path d="M837.514 258.317C837.514 231.808 816.024 210.317 789.514 210.317C763.005 210.317 741.514 231.808 741.514 258.317V549.651C741.514 581.659 728.803 612.352 706.183 634.981C683.562 657.608 652.886 670.317 620.903 670.317H513.606C510.08 670.317 506.695 668.917 504.197 666.418C501.699 663.918 500.292 660.525 500.292 656.984C500.292 630.474 478.802 608.984 452.292 608.984C425.783 608.984 404.292 630.474 404.292 656.984C404.292 685.976 415.806 713.784 436.304 734.289C456.803 754.794 484.609 766.317 513.606 766.317H620.903C678.357 766.317 733.455 743.486 774.076 702.852C814.697 662.217 837.514 607.109 837.514 549.651V258.317Z" fill="white"/>
<path fill-rule="evenodd" clip-rule="evenodd" d="M0.999984 167.008C0.978658 165.843 0.999808 164.681 1.06281 163.523C1.96699 145.738 12.5517 130.507 27.6522 122.997C104.839 79.0958 192.147 56 281 56C361.755 56 441.235 75.0782 513 111.515C584.765 75.0782 664.245 56 745 56C833.853 56 921.161 79.0959 998.348 122.997C1013.45 130.508 1024.03 145.738 1024.94 163.524C1025 164.682 1025.02 165.844 1025 167.007V919.251C1025.15 927.669 1023.09 936.236 1018.58 944.062C1005.34 967.027 975.988 974.909 953.023 961.667C889.78 925.201 818.035 906 745 906C671.965 906 600.22 925.201 536.977 961.667C522.137 970.224 503.863 970.224 489.023 961.667C425.78 925.201 354.035 906 281 906C207.965 906 136.22 925.201 72.977 961.667C50.0116 974.909 20.6596 967.027 7.4175 944.062C2.90535 936.237 0.845848 927.67 0.999984 919.251V167.008ZM929 844.165V194.844C871.881 166.714 808.935 152 745 152C671.965 152 600.22 171.201 536.977 207.667C522.137 216.224 503.863 216.224 489.023 207.667C425.78 171.201 354.035 152 281 152C217.065 152 154.119 166.714 97 194.844V844.165C155.502 821.662 217.861 810 281 810C361.755 810 441.235 829.078 513 865.515C584.765 829.078 664.245 810 745 810C808.139 810 870.498 821.662 929 844.165Z" fill="white"/>
</svg>
