<svg xmlns="http://www.w3.org/2000/svg" width="1024" height="1024" fill="none">
  <path fill="#000" fill-rule="evenodd"
    d="M267.197 302.719h368.191a78.71 78.71 0 0 1 55.61 23.004 78.611 78.611 0 0 1 23.073 55.629v137.85a124.524 124.524 0 0 1-36.553 88.121 124.77 124.77 0 0 1-88.154 36.462h-15.341a109.42 109.42 0 0 1-77.306-31.976 109.219 109.219 0 0 1-32.059-77.291 13.22 13.22 0 0 0-3.887-9.353 13.415 13.415 0 0 0-9.478-3.913c-3.57 0-6.978 1.416-9.478 3.913a13.217 13.217 0 0 0-3.888 9.353 109.219 109.219 0 0 1-32.059 77.291 109.42 109.42 0 0 1-77.306 31.976h-15.341a124.772 124.772 0 0 1-88.154-36.462 124.524 124.524 0 0 1-36.553-88.121v-137.85a78.611 78.611 0 0 1 23.073-55.629 78.71 78.71 0 0 1 55.61-23.004Zm17.317 96h333.557v120.483a28.524 28.524 0 0 1-8.381 20.184 28.767 28.767 0 0 1-20.326 8.399h-15.341c-3.57 0-6.977-1.417-9.478-3.913a13.217 13.217 0 0 1-3.887-9.354 109.213 109.213 0 0 0-32.06-77.29 109.415 109.415 0 0 0-77.305-31.976 109.415 109.415 0 0 0-77.306 31.976 109.218 109.218 0 0 0-32.06 77.29c0 3.494-1.389 6.86-3.887 9.354a13.416 13.416 0 0 1-9.478 3.913h-15.341a28.77 28.77 0 0 1-20.326-8.399 28.524 28.524 0 0 1-8.381-20.184V398.719Z"
    clip-rule="evenodd" />
  <path fill="#000"
    d="M836.514 258.317c0-26.509-21.49-48-48-48-26.509 0-48 21.491-48 48v291.334a120.699 120.699 0 0 1-35.331 85.33 120.588 120.588 0 0 1-85.28 35.336H512.606c-3.526 0-6.911-1.4-9.409-3.899a13.348 13.348 0 0 1-3.905-9.434c0-26.51-21.49-48-48-48-26.509 0-48 21.49-48 48 0 28.992 11.514 56.8 32.012 77.305a109.306 109.306 0 0 0 77.302 32.028h107.297a216.585 216.585 0 0 0 153.173-63.465 216.696 216.696 0 0 0 63.438-153.201V258.317Z" />
  <path fill="#000" fill-rule="evenodd"
    d="M0 167.008c-.021-1.165 0-2.327.063-3.485.904-17.785 11.489-33.016 26.59-40.526A512.454 512.454 0 0 1 280 56a512.482 512.482 0 0 1 232 55.515A512.482 512.482 0 0 1 744 56a512.456 512.456 0 0 1 253.348 66.997c15.102 7.511 25.682 22.741 26.592 40.527.06 1.158.08 2.32.06 3.483v752.244a47.844 47.844 0 0 1-6.42 24.811c-13.24 22.965-42.592 30.847-65.557 17.605A416.464 416.464 0 0 0 744 906a416.464 416.464 0 0 0-208.023 55.667 47.998 47.998 0 0 1-47.954 0A416.464 416.464 0 0 0 280 906a416.464 416.464 0 0 0-208.023 55.667c-22.965 13.242-52.317 5.36-65.56-17.605A47.777 47.777 0 0 1 0 919.251V167.008Zm928 677.157V194.844A416.485 416.485 0 0 0 744 152a416.464 416.464 0 0 0-208.023 55.667 47.998 47.998 0 0 1-47.954 0A416.464 416.464 0 0 0 280 152a416.485 416.485 0 0 0-184 42.844v649.321A512.522 512.522 0 0 1 280 810a512.48 512.48 0 0 1 232 55.515A512.48 512.48 0 0 1 744 810a512.522 512.522 0 0 1 184 34.165Z"
    clip-rule="evenodd" />
</svg>